<?xml version="1.0" encoding="UTF-8"?>
<svg version="1.1" xmlns="http://www.w3.org/2000/svg" width="154" height="154">
<path d="M0 0 C5.81691645 0.65000891 11.47198464 1.61979042 17.1875 2.875 C17.96802734 3.03613281 18.74855469 3.19726562 19.55273438 3.36328125 C20.31263672 3.52957031 21.07253906 3.69585937 21.85546875 3.8671875 C22.53246826 4.01269043 23.20946777 4.15819336 23.90698242 4.30810547 C26.64330026 5.21265752 28.68250564 6.27184887 31 8 C32.22607422 10.48022461 32.22607422 10.48022461 33.0546875 13.40234375 C33.35890625 14.45744141 33.663125 15.51253906 33.9765625 16.59960938 C34.42128906 18.25186523 34.42128906 18.25186523 34.875 19.9375 C35.1946875 21.03513672 35.514375 22.13277344 35.84375 23.26367188 C38.34178927 32.16429439 38.34178927 32.16429439 37 36 C33.535 36.495 33.535 36.495 30 37 C28.68 30.73 27.36 24.46 26 18 C25.34 18 24.68 18 24 18 C22.46716567 19.90864506 21.03437967 21.8158788 19.625 23.8125 C17.0851482 27.40639029 14.7421677 30.56502787 11 33 C8.69 31.02 6.38 29.04 4 27 C5.0436522 22.8253912 5.15044501 22.48203882 8.37890625 20.203125 C9.38920898 19.47802734 9.38920898 19.47802734 10.41992188 18.73828125 C11.12697266 18.24714844 11.83402344 17.75601563 12.5625 17.25 C13.27341797 16.74339844 13.98433594 16.23679687 14.71679688 15.71484375 C16.47101432 14.46687697 18.23463359 13.23214503 20 12 C19.39937744 11.88406494 18.79875488 11.76812988 18.17993164 11.64868164 C15.47333141 11.12393529 12.76791952 10.59329853 10.0625 10.0625 C9.11697266 9.88009766 8.17144531 9.69769531 7.19726562 9.50976562 C6.29814453 9.33251953 5.39902344 9.15527344 4.47265625 8.97265625 C3.64000244 8.81031494 2.80734863 8.64797363 1.94946289 8.48071289 C0 8 0 8 -1 7 C-0.71269945 4.66055264 -0.38063221 2.3260857 0 0 Z " fill="#091B23" transform="translate(49,68)"/>
<path d="M0 0 C4.83256305 0.41421969 6.82679218 2.46413986 10 6 C7.68220933 9.80779895 6.15744252 12.27967896 2 14 C1.67 14.66 1.34 15.32 1 16 C-2.1925693 18.12837953 -5.40824827 19.66592079 -9 21 C-10.32 19.35 -11.64 17.7 -13 16 C-12.34 16 -11.68 16 -11 16 C-11 15.34 -11 14.68 -11 14 C-10.34 14 -9.68 14 -9 14 C-8.71125 13.4225 -8.4225 12.845 -8.125 12.25 C-7.08333333 10.16666667 -6.04166667 8.08333333 -5 6 C-4.34 6 -3.68 6 -3 6 C-3 5.34 -3 4.68 -3 4 C-2.34 4 -1.68 4 -1 4 C-0.67 2.68 -0.34 1.36 0 0 Z " fill="#1277B1" transform="translate(91,54)"/>
<path d="M0 0 C2.77170395 0.11386459 5.54178046 0.24060778 8.3125 0.375 C9.09818359 0.4059375 9.88386719 0.436875 10.69335938 0.46875 C11.8293457 0.52675781 11.8293457 0.52675781 12.98828125 0.5859375 C14.03302612 0.63306885 14.03302612 0.63306885 15.09887695 0.68115234 C17 1 17 1 20 3 C20.51171875 5.1640625 20.51171875 5.1640625 20.6875 7.625 C20.78611328 8.85089844 20.78611328 8.85089844 20.88671875 10.1015625 C20.92410156 10.72804688 20.96148437 11.35453125 21 12 C15.78570499 11.46792908 11.78073646 10.08613955 7 8 C5.01178687 7.60235737 3.01267638 7.24544834 1 7 C0.67 4.69 0.34 2.38 0 0 Z " fill="#1AAFD1" transform="translate(85,77)"/>
<path d="M0 0 C1.64671412 0.30782496 3.29235576 0.62139234 4.9375 0.9375 C5.85402344 1.11152344 6.77054687 1.28554688 7.71484375 1.46484375 C10 2 10 2 11 3 C11.40190029 4.88629113 11.74657353 6.78492056 12.0625 8.6875 C12.23910156 9.72261719 12.41570312 10.75773437 12.59765625 11.82421875 C12.99014566 14.92221769 13.07013684 17.88124863 13 21 C10.6640625 20.7890625 10.6640625 20.7890625 8 20 C6.5234375 17.9609375 6.5234375 17.9609375 5.375 15.375 C4.96636719 14.47394531 4.55773437 13.57289062 4.13671875 12.64453125 C3.76160156 11.77183594 3.38648437 10.89914063 3 10 C2.51466797 8.95392578 2.51466797 8.95392578 2.01953125 7.88671875 C0.73665857 5.07403546 0 3.12682259 0 0 Z " fill="#1F1E59" transform="translate(64,49)"/>
<path d="M0 0 C2.31 0.33 4.62 0.66 7 1 C7 1.66 7 2.32 7 3 C8.65 3 10.3 3 12 3 C11.01 3.495 11.01 3.495 10 4 C10.33 4.99 10.66 5.98 11 7 C9 9 9 9 6.87109375 9.01171875 C6.06800781 8.90472656 5.26492187 8.79773438 4.4375 8.6875 C3.63183594 8.58824219 2.82617188 8.48898438 1.99609375 8.38671875 C0 8 0 8 -1 7 C-0.71269945 4.66055264 -0.38063221 2.3260857 0 0 Z " fill="#0A191E" transform="translate(49,68)"/>
<path d="M0 0 C6.4 -0.36923077 6.4 -0.36923077 9.4375 1.5 C9.953125 1.995 10.46875 2.49 11 3 C10.67 4.32 10.34 5.64 10 7 C10 6.34 10 5.68 10 5 C9.34 5 8.68 5 8 5 C8 5.66 8 6.32 8 7 C7.34 7 6.68 7 6 7 C6 5.68 6 4.36 6 3 C5.01 3 4.02 3 3 3 C3 4.32 3 5.64 3 7 C2.34 7 1.68 7 1 7 C1.33 5.68 1.66 4.36 2 3 C1.34 2.67 0.68 2.34 0 2 C0 1.34 0 0.68 0 0 Z " fill="#0E2834" transform="translate(69,73)"/>
<path d="M0 0 C1.60379341 -0.05416188 3.20811406 -0.09286638 4.8125 -0.125 C5.70582031 -0.14820312 6.59914063 -0.17140625 7.51953125 -0.1953125 C10 0 10 0 13 2 C13.51171875 4.1640625 13.51171875 4.1640625 13.6875 6.625 C13.78611328 7.85089844 13.78611328 7.85089844 13.88671875 9.1015625 C13.92410156 9.72804688 13.96148437 10.35453125 14 11 C13.34 10.67 12.68 10.34 12 10 C12 8.68 12 7.36 12 6 C11.34 6 10.68 6 10 6 C10 4.68 10 3.36 10 2 C6.37 2 2.74 2 -1 2 C-0.67 1.34 -0.34 0.68 0 0 Z " fill="#26AECA" transform="translate(92,78)"/>
<path d="M0 0 C4.70689655 2.4137931 4.70689655 2.4137931 6 5 C6 7 6 7 4.5625 8.75 C3.7890625 9.36875 3.7890625 9.36875 3 10 C1 8.875 1 8.875 -1 7 C-1.3125 3.875 -1.3125 3.875 -1 1 C-0.67 0.67 -0.34 0.34 0 0 Z " fill="#0B76B6" transform="translate(92,55)"/>
<path d="M0 0 C4.95 0.99 4.95 0.99 10 2 C9.67 2.66 9.34 3.32 9 4 C6.03 3.505 6.03 3.505 3 3 C3.22816406 3.55429687 3.45632812 4.10859375 3.69140625 4.6796875 C3.97886719 5.40414062 4.26632813 6.12859375 4.5625 6.875 C4.99755859 7.95394531 4.99755859 7.95394531 5.44140625 9.0546875 C6 11 6 11 5 13 C4.15930585 11.39967863 3.32768495 9.79458829 2.5 8.1875 C1.80390625 6.84751953 1.80390625 6.84751953 1.09375 5.48046875 C0 3 0 3 0 0 Z " fill="#2A2851" transform="translate(64,49)"/>
<path d="M0 0 C0.66 0.33 1.32 0.66 2 1 C1.6875 2.9375 1.6875 2.9375 1 5 C0.01 5.33 -0.98 5.66 -2 6 C-1.67 7.32 -1.34 8.64 -1 10 C-2.32 9.01 -3.64 8.02 -5 7 C-4.60196439 4.11424181 -4.20990931 3.17810487 -1.9375 1.25 C-1.298125 0.8375 -0.65875 0.425 0 0 Z " fill="#131F24" transform="translate(58,88)"/>
<path d="M0 0 C4.83256305 0.41421969 6.82679218 2.46413986 10 6 C8.1875 9 8.1875 9 6 12 C5.01 12 4.02 12 3 12 C4 10 5 8 6 6 C4.71034824 4.62437146 3.37310707 3.29233607 2 2 C1.34 2 0.68 2 0 2 C0 1.34 0 0.68 0 0 Z " fill="#2178A7" transform="translate(91,54)"/>
<path d="M0 0 C1.65 0 3.3 0 5 0 C4.67 1.32 4.34 2.64 4 4 C1.69 4.33 -0.62 4.66 -3 5 C-2.67 4.01 -2.34 3.02 -2 2 C-1.34 2 -0.68 2 0 2 C0 1.34 0 0.68 0 0 Z " fill="#08171C" transform="translate(82,100)"/>
<path d="M0 0 C-1.55500981 3.81684226 -4.03595495 6.19195732 -7 9 C-6.67 7.68 -6.34 6.36 -6 5 C-6.66 4.67 -7.32 4.34 -8 4 C-3.375 0 -3.375 0 0 0 Z " fill="#111F24" transform="translate(69,90)"/>
<path d="M0 0 C0.66 0 1.32 0 2 0 C1.8125 1.8125 1.8125 1.8125 1 4 C-1.26546849 5.56840126 -3.5414529 6.77072645 -6 8 C-5.34 5.69 -4.68 3.38 -4 1 C-2.68 1.33 -1.36 1.66 0 2 C0 1.34 0 0.68 0 0 Z " fill="#1E81B4" transform="translate(91,66)"/>
<path d="M0 0 C0.99 0 1.98 0 3 0 C3 1.32 3 2.64 3 4 C3.66 4 4.32 4 5 4 C5.33 5.32 5.66 6.64 6 8 C4.02 7.34 2.04 6.68 0 6 C0 4.02 0 2.04 0 0 Z " fill="#07B8D3" transform="translate(99,80)"/>
<path d="M0 0 C2 0 2 0 3.625 1.1875 C5.42149467 3.55560662 5.23521845 5.09897251 5 8 C4.01 8.33 3.02 8.66 2 9 C1.87625 7.865625 1.7525 6.73125 1.625 5.5625 C1.41875 4.386875 1.2125 3.21125 1 2 C0.34 1.67 -0.32 1.34 -1 1 C-0.67 0.67 -0.34 0.34 0 0 Z " fill="#17212C" transform="translate(74,82)"/>
<path d="M0 0 C0.33 0 0.66 0 1 0 C1.33 3.63 1.66 7.26 2 11 C-1 10 -1 10 -2 9 C-1.74804092 7.46797294 -1.42403223 5.94742872 -1.0625 4.4375 C-0.86785156 3.61121094 -0.67320313 2.78492188 -0.47265625 1.93359375 C-0.31667969 1.29550781 -0.16070312 0.65742187 0 0 Z " fill="#223A6E" transform="translate(75,59)"/>
<path d="M0 0 C0.103125 0.639375 0.20625 1.27875 0.3125 1.9375 C0.539375 2.618125 0.76625 3.29875 1 4 C1.99 4.33 2.98 4.66 4 5 C3.67 5.99 3.34 6.98 3 8 C3.66 8 4.32 8 5 8 C5.33 7.34 5.66 6.68 6 6 C6 6.99 6 7.98 6 9 C4.35 8.67 2.7 8.34 1 8 C0.26919734 6.02253397 -0.39421747 4.01927511 -1 2 C-0.67 1.34 -0.34 0.68 0 0 Z " fill="#23224C" transform="translate(70,60)"/>
<path d="M0 0 C1.65 0 3.3 0 5 0 C4.34 1.65 3.68 3.3 3 5 C1.68 4.34 0.36 3.68 -1 3 C-0.67 2.01 -0.34 1.02 0 0 Z " fill="#117EBB" transform="translate(81,70)"/>
<path d="M0 0 C0.66 0.66 1.32 1.32 2 2 C1.34 2 0.68 2 0 2 C0 1.34 0 0.68 0 0 Z " fill="#1C8CB1" transform="translate(81,78)"/>
<path d="" fill="#22BBDC" transform="translate(0,0)"/>
<path d="" fill="#0F1B20" transform="translate(0,0)"/>
<path d="" fill="#1EB9DB" transform="translate(0,0)"/>
<path d="" fill="#0E1B22" transform="translate(0,0)"/>
<path d="" fill="#111C20" transform="translate(0,0)"/>
<path d="" fill="#25749E" transform="translate(0,0)"/>
<path d="" fill="#28739B" transform="translate(0,0)"/>
<path d="" fill="#1E75AA" transform="translate(0,0)"/>
<path d="" fill="#1D73A8" transform="translate(0,0)"/>
</svg>
